HIERARCHY
ROOT Hips
{
	OFFSET 0.000000 0.000000 0.000000
	CHANNELS 6 Xposition Yposition Zposition Zrotation Xrotation Yrotation
	JOINT RightUpLeg
	{
		OFFSET -10.795800 0.000000 0.000000
		CHANNELS 3 Zrotation Xrotation Yrotation
		JOINT RightLeg
		{
			OFFSET 0.000000 -39.557900 0.000000
			CHANNELS 3 Zrotation Xrotation Yrotation
			JOINT RightFoot
			{
				OFFSET 0.000000 -40.613400 0.000000
				CHANNELS 3 Zrotation Xrotation Yrotation
				JOINT RightToe
				{
					OFFSET 0.000000 -1.003500 12.392200
					CHANNELS 3 Zrotation Xrotation Yrotation
					JOINT RightToeEnd
					{
						OFFSET 0.000000 1.088300 5.767000
						CHANNELS 3 Zrotation Xrotation Yrotation
						End Site
						{
						    OFFSET 0.000000 0.927200 4.913300
						}
					}
				}
			}
		}
	}
	JOINT LeftUpLeg
	{
		OFFSET 10.795800 0.000000 0.000000
		CHANNELS 3 Zrotation Xrotation Yrotation
		JOINT LeftLeg
		{
			OFFSET 0.000000 -39.557900 0.000000
			CHANNELS 3 Zrotation Xrotation Yrotation
			JOINT LeftFoot
			{
				OFFSET 0.000000 -40.613400 0.000000
				CHANNELS 3 Zrotation Xrotation Yrotation
				JOINT LeftToe
				{
					OFFSET 0.000000 -1.003500 12.392200
					CHANNELS 3 Zrotation Xrotation Yrotation
					JOINT LeftToeEnd
					{
						OFFSET 0.000000 1.088300 5.767000
						CHANNELS 3 Zrotation Xrotation Yrotation
						End Site
						{
						    OFFSET 0.000000 0.927200 4.913300
						}
					}
				}
			}
		}
	}
	JOINT Spine
	{
		OFFSET 0.000000 15.108100 0.000000
		CHANNELS 3 Zrotation Xrotation Yrotation
		JOINT Spine1
		{
			OFFSET 0.000000 12.828000 0.000000
			CHANNELS 3 Zrotation Xrotation Yrotation
			JOINT Spine2
			{
				OFFSET 0.000000 11.155500 0.000000
				CHANNELS 3 Zrotation Xrotation Yrotation
				JOINT LeftShoulder
				{
					OFFSET 2.000000 11.155500 0.000000
					CHANNELS 3 Zrotation Xrotation Yrotation
					JOINT LeftArm
					{
						OFFSET 15.139800 0.000000 0.000000
						CHANNELS 3 Zrotation Xrotation Yrotation
						JOINT LeftForeArm
						{
							OFFSET 0.000000 -26.627300 0.000000
							CHANNELS 3 Zrotation Xrotation Yrotation
							JOINT LeftHand
							{
								OFFSET 0.000000 -24.932400 0.000000
								CHANNELS 3 Zrotation Xrotation Yrotation
								JOINT LeftFinger0
								{
									OFFSET 0.000000 -8.640100 0.000000
									CHANNELS 3 Zrotation Xrotation Yrotation
									End Site
									{
									    OFFSET 0.000000 -5.000000 0.000000
									}
								}
							}
						}
					}
				}
				JOINT RightShoulder
				{
					OFFSET -2.000000 11.155500 0.000000
					CHANNELS 3 Zrotation Xrotation Yrotation
					JOINT RightArm
					{
						OFFSET -15.139800 0.000000 0.000000
						CHANNELS 3 Zrotation Xrotation Yrotation
						JOINT RightForeArm
						{
							OFFSET 0.000000 -26.627300 0.000000
							CHANNELS 3 Zrotation Xrotation Yrotation
							JOINT RightHand
							{
								OFFSET 0.000000 -24.932400 0.000000
								CHANNELS 3 Zrotation Xrotation Yrotation
								JOINT RightFinger0
								{
									OFFSET 0.000000 -8.640100 0.000000
									CHANNELS 3 Zrotation Xrotation Yrotation
									End Site
									{
									    OFFSET 0.000000 -5.000000 0.000000
									}
								}
							}
						}
					}
				}
				JOINT Neck
				{
					OFFSET 0.000000 11.155500 0.000000
					CHANNELS 3 Zrotation Xrotation Yrotation
					JOINT Head
					{
						OFFSET 0.000000 10.940000 0.000000
						CHANNELS 3 Zrotation Xrotation Yrotation
						JOINT HeadTip
						{
							OFFSET 0.000000 10.000000 0.000000
							CHANNELS 3 Zrotation Xrotation Yrotation
							End Site
							{
							    OFFSET 0.000000 5.000000 0.000000
							}
						}
					}
				}
			}
		}
	}
}
MOTION
Frames:	11
Frame Time:	0.033332
76.911100 86.128900 -33.421300 0.004121 -3.138378 0.807759 -1.074188 3.917023 -9.048260 -0.000000 5.824044 0.000000 10.319475 2.434727 -19.017967 -0.000000 1.725820 0.000000 -0.000000 0.000000 -0.000000 0.040978 2.735425 1.332249 -0.000000 6.239622 -0.000000 -8.794622 6.515275 20.368873 -0.000000 -7.425860 -0.000000 -0.000000 0.000000 -0.000000 -1.585763 2.448017 0.225851 0.000000 1.959702 -0.000000 -0.000000 0.000000 0.000000 1.743394 0.000000 6.685749 70.756665 -8.075014 21.481988 -0.000000 -28.827072 0.000000 -10.798705 14.362973 -35.791233 -0.000000 -0.000000 0.000000 -1.918472 -0.000000 -8.349034 -65.838963 -10.627792 -17.674298 -0.000050 -18.262830 -0.000008 6.571508 7.319236 14.681943 0.000000 0.000000 -0.000000 -0.000000 0.000000 0.000000 3.586584 6.596345 1.783102 -0.000000 0.000000 -0.000000 
76.917100 86.128800 -33.428900 0.000916 -3.132633 0.794605 -1.077963 3.913612 -9.028539 0.000000 5.811135 -0.000000 10.335164 2.451566 -19.014869 -0.000000 1.701689 -0.000000 -0.000000 -0.000000 -0.000000 0.037501 2.734110 1.339780 -0.000000 6.224754 -0.000000 -8.777135 6.546005 20.384001 -0.000000 -7.463846 0.000000 -0.000000 -0.000000 -0.000000 -1.578908 2.455812 0.232153 -0.000000 1.983198 -0.000000 -0.000000 -0.000000 -0.000000 1.756829 -0.000000 6.713929 70.793596 -8.110071 21.485571 0.000000 -28.795677 -0.000000 -10.819196 14.407273 -35.651824 -0.000000 0.000000 -0.000000 -1.897093 0.000000 -8.426151 -65.907739 -10.696686 -17.733039 -0.000050 -18.250242 -0.000008 6.673155 7.386458 14.807097 0.000000 0.000000 -0.000000 -0.000000 -0.000000 -0.000000 3.566998 6.502896 1.847586 -0.000000 -0.000000 -0.000000 
76.925300 86.130300 -33.435700 -0.000692 -3.131436 0.787821 -1.079920 3.908347 -9.050091 -0.000000 5.803133 -0.000000 10.313578 2.475245 -19.008411 -0.000000 1.707817 -0.000000 0.000000 0.000000 -0.000000 0.037191 2.727791 1.334863 -0.000000 6.225949 -0.000000 -8.786578 6.562236 20.384678 0.000000 -7.488398 -0.000000 -0.000000 0.000000 -0.000000 -1.571720 2.474147 0.232601 0.000000 1.990167 0.000000 0.000000 -0.000000 -0.000000 1.783657 0.000000 6.727975 70.804290 -8.144910 21.567661 0.000000 -28.763025 -0.000000 -10.907941 14.454171 -35.673306 0.000000 -0.000000 -0.000000 -1.889985 0.000000 -8.450052 -65.970617 -10.708155 -17.857443 -0.000050 -18.238914 -0.000008 6.727331 7.389547 14.822022 0.000000 0.000000 -0.000000 0.000000 -0.000000 -0.000000 3.574917 6.443093 1.919086 -0.000000 0.000000 -0.000000 
76.935100 86.131800 -33.440900 -0.004378 -3.124820 0.795265 -1.084288 3.889029 -9.077392 -0.000000 5.823531 -0.000000 10.329217 2.457155 -18.992429 -0.000000 1.763149 -0.000000 -0.000000 0.000000 0.000000 0.031627 2.723014 1.341109 -0.000000 6.213523 -0.000000 -8.781422 6.547339 20.373829 -0.000000 -7.470524 -0.000000 -0.000000 0.000000 0.000000 -1.562173 2.473016 0.210124 -0.000000 2.006893 -0.000000 -0.000000 -0.000000 0.000000 1.794539 -0.000000 6.740898 70.832546 -8.163039 21.596696 0.000000 -28.756130 0.000000 -10.880212 14.432611 -35.638158 0.000000 -0.000000 -0.000000 -1.880603 0.000000 -8.498944 -66.044174 -10.762423 -17.902583 -0.000050 -18.251924 -0.000008 6.668345 7.393458 14.705279 -0.000000 0.000000 -0.000000 -0.000000 -0.000000 0.000000 3.596979 6.422745 1.976747 -0.000000 0.000000 0.000000 
76.946100 86.131700 -33.444000 0.001999 -3.116929 0.802398 -1.099348 3.877192 -9.068146 0.000000 5.828013 -0.000000 10.342921 2.470861 -18.993332 -0.000000 1.704746 0.000000 -0.000000 0.000000 0.000000 0.021143 2.720335 1.365249 0.000000 6.197356 0.000000 -8.780886 6.578077 20.346539 0.000000 -7.502989 -0.000000 0.000000 0.000000 -0.000000 -1.567346 2.470365 0.188394 -0.000000 2.007065 0.000000 -0.000000 0.000000 -0.000000 1.797174 -0.000000 6.760644 70.860069 -8.204531 21.672056 0.000000 -28.764931 -0.000000 -10.896215 14.486652 -35.627434 0.000000 -0.000000 0.000000 -1.899827 0.000000 -8.509153 -66.072422 -10.777455 -18.001914 -0.000050 -18.246268 -0.000008 6.631634 7.394148 14.845794 0.000000 0.000000 -0.000000 -0.000000 0.000000 -0.000000 3.626735 6.449261 2.022691 0.000000 0.000000 -0.000000 
76.955700 86.132000 -33.448100 0.015300 -3.107424 0.821128 -1.121878 3.870992 -9.055889 -0.000000 5.834354 0.000000 10.472047 2.422004 -19.007208 -0.000000 1.739721 -0.000000 0.000000 0.000000 -0.000000 0.003659 2.712375 1.356681 -0.000000 6.188493 -0.000000 -8.769444 6.571281 20.329858 -0.000000 -7.382342 -0.000000 -0.000000 0.000000 0.000000 -1.584726 2.476644 0.165417 -0.000000 1.995139 -0.000000 0.000000 0.000000 -0.000000 1.803159 -0.000000 6.773950 70.892478 -8.226035 21.713937 0.000000 -28.790367 -0.000000 -10.914327 14.436291 -35.768712 0.000000 0.000000 -0.000000 -1.901074 -0.000000 -8.560109 -66.101333 -10.801297 -18.050098 -0.000050 -18.317325 -0.000008 6.567393 7.375111 14.764361 -0.000000 0.000000 0.000000 0.000000 0.000000 -0.000000 3.652275 6.480818 2.026028 0.000000 -0.000000 -0.000000 
76.962600 86.133000 -33.451100 0.013010 -3.073464 0.859360 -1.118057 3.850297 -9.085295 -0.000000 5.805855 -0.000000 10.382469 2.466643 -19.016462 0.000000 1.715427 0.000000 -0.000000 0.000000 0.000000 0.002958 2.659494 1.326095 -0.000000 6.207316 -0.000000 -8.779197 6.595643 20.331196 -0.000000 -7.496347 -0.000000 0.000000 -0.000000 -0.000000 -1.580139 2.448397 0.114123 -0.000000 1.991133 -0.000000 -0.000000 0.000000 0.000000 1.786532 0.000000 6.792772 70.909431 -8.246883 21.809150 0.000000 -28.832396 -0.000000 -10.925500 14.411110 -35.789746 0.000000 -0.000000 -0.000000 -1.863820 0.000000 -8.661745 -66.197229 -10.891024 -18.003919 -0.000050 -18.354647 -0.000008 6.650011 7.339025 14.704004 -0.000000 -0.000000 -0.000000 -0.000000 0.000000 0.000000 3.653031 6.495515 1.997565 0.000000 0.000000 0.000000 
76.969700 86.131900 -33.447400 0.013330 -3.074875 0.865400 -1.124444 3.855933 -9.080239 0.000000 5.809630 -0.000000 10.385230 2.444061 -19.024495 -0.000000 1.739678 -0.000000 -0.000000 0.000000 -0.000000 -0.003605 2.678246 1.320400 -0.000000 6.178560 0.000000 -8.780747 6.598017 20.339483 -0.000000 -7.498001 -0.000000 -0.000000 -0.000000 -0.000000 -1.577998 2.439164 0.087539 -0.000000 2.008353 -0.000000 -0.000000 -0.000000 -0.000000 1.786350 0.000000 6.791019 70.912736 -8.234340 21.816183 -0.000000 -28.872401 0.000000 -10.911105 14.446965 -35.733203 -0.000000 0.000000 -0.000000 -1.862463 -0.000000 -8.666416 -66.214115 -10.882004 -18.093268 -0.000051 -18.416736 -0.000008 6.564767 7.333987 14.805866 0.000000 0.000000 -0.000000 -0.000000 -0.000000 -0.000000 3.641538 6.512870 2.003142 -0.000000 0.000000 -0.000000 
76.974000 86.132100 -33.451100 0.013257 -3.055159 0.852911 -1.130047 3.814635 -9.131523 -0.000000 5.837188 -0.000000 10.356116 2.459318 -18.971726 -0.000000 1.717712 -0.000000 -0.000000 0.000000 -0.000000 -0.005893 2.658673 1.319109 0.000000 6.176921 -0.000000 -8.813073 6.564366 20.353320 -0.000000 -7.422592 -0.000000 -0.000000 -0.000000 -0.000000 -1.584141 2.430328 0.076234 0.000000 2.014764 -0.000000 0.000000 -0.000000 -0.000000 1.805814 0.000000 6.813045 70.888541 -8.241247 21.791600 0.000000 -28.876622 -0.000000 -10.855683 14.433989 -35.716861 0.000000 0.000000 -0.000000 -1.834972 -0.000000 -8.694217 -66.263173 -10.902646 -18.127510 -0.000051 -18.444091 -0.000008 6.575877 7.324422 14.825348 0.000000 0.000000 0.000000 0.000000 -0.000000 -0.000000 3.664747 6.469381 2.052344 -0.000000 0.000000 -0.000000 
76.981000 86.132000 -33.448200 0.005862 -3.049749 0.833498 -1.126996 3.806189 -9.089994 -0.000000 5.838481 -0.000000 10.353315 2.463917 -19.003529 -0.000000 1.734809 0.000000 0.000000 0.000000 -0.000000 -0.003002 2.658494 1.329423 0.000000 6.174931 0.000000 -8.765800 6.597944 20.343281 -0.000000 -7.511608 0.000000 0.000000 0.000000 0.000000 -1.583885 2.422324 0.065997 -0.000000 2.025954 0.000000 -0.000000 0.000000 -0.000000 1.815883 -0.000000 6.831274 70.893272 -8.246009 21.814650 0.000000 -28.828623 0.000000 -10.958678 14.406169 -35.753456 -0.000000 0.000000 -0.000000 -1.819566 0.000000 -8.702268 -66.285958 -10.923517 -18.185883 -0.000051 -18.421191 -0.000008 6.603389 7.347799 14.900667 -0.000000 0.000000 -0.000000 -0.000000 0.000000 -0.000000 3.714868 6.448682 2.104861 -0.000000 0.000000 -0.000000 
76.986500 86.129700 -33.443700 0.006578 -3.040193 0.803540 -1.140566 3.791193 -9.081746 -0.000000 5.855055 0.000000 10.386457 2.455672 -18.964314 -0.000000 1.699162 -0.000000 -0.000000 -0.000000 0.000000 -0.015946 2.657720 1.347168 -0.000000 6.170895 -0.000000 -8.759115 6.578382 20.383992 0.000000 -7.480197 0.000000 -0.000000 0.000000 -0.000000 -1.592341 2.397080 0.047407 0.000000 2.048286 -0.000000 -0.000000 -0.000000 0.000000 1.803899 -0.000000 6.863427 70.925698 -8.270654 21.875724 0.000000 -28.770545 -0.000000 -10.961109 14.482468 -35.744745 -0.000000 0.000000 -0.000000 -1.818502 0.000000 -8.698319 -66.297199 -10.958126 -18.198993 -0.000050 -18.366172 -0.000008 6.618606 7.321020 14.831578 0.000000 0.000000 0.000000 -0.000000 -0.000000 0.000000 3.751590 6.428598 2.128862 0.000000 -0.000000 -0.000000 
